<svg width="40" height="40" viewBox="0 0 40 40" fill="none" xmlns="http://www.w3.org/2000/svg">
  <!-- Background circle -->
  <circle cx="20" cy="20" r="18" fill="#1976d2" stroke="#ffffff" stroke-width="2"/>
  
  <!-- Code brackets -->
  <path d="M12 14L8 20L12 26" stroke="#ffffff" stroke-width="2.5" stroke-linecap="round" stroke-linejoin="round"/>
  <path d="M28 14L32 20L28 26" stroke="#ffffff" stroke-width="2.5" stroke-linecap="round" stroke-linejoin="round"/>
  
  <!-- Wave/tide element -->
  <path d="M10 20C12 18 14 22 16 20C18 18 20 22 22 20C24 18 26 22 28 20C30 18 32 22 30 20" 
        stroke="#64b5f6" stroke-width="2" stroke-linecap="round" fill="none"/>
  
  <!-- Smaller wave -->
  <path d="M12 24C14 22 16 26 18 24C20 22 22 26 24 24C26 22 28 26 26 24" 
        stroke="#90caf9" stroke-width="1.5" stroke-linecap="round" fill="none"/>
</svg>
